# xmcd
#
# Track frame offsets:
#	150
#	16318
#	21965
#	33817
#	45094
#	52609
#	68704
#	80491
#	95799
#	112731
#	126974
#	142562
#	154706
#	170114
#	189240
#	203050
#	216645
#	230068
#	244691
#	258724
#	267552
#	273427
#	278816
#	284978
#	295002
#	304995
#
# Disc length: 4324 seconds
#
# Revision: 0
# Processed by: cddbd v1.5.2PL0 Copyright (c) Steve Scherf et al.
# Submitted via: audiograbber 1.81.03
#
DISCID=7d10e21a
DTITLE=GALANI, PROTOPSALTI  - LIVE STO VOX
DYEAR=2005
DGENRE=Ballad
TTITLE0=Posa grafei i agapi akoma
TTITLE1=Mou takses taksidi na me pas
TTITLE2=S'agapo
TTITLE3=Zo
TTITLE4=H mpalanta ton aisthseon kai ton paraisthseon
TTITLE5=Mh mou milas gi'agapi
TTITLE6=Ta hartina
TTITLE7=Venzinadiko
TTITLE8=Me to idio mako
TTITLE9=Trava skandali
TTITLE10=Combo combo
TTITLE11=OLE, OLE, OLA
TTITLE12=To s'agapo mporei
TTITLE13=O aggelos mou
TTITLE14=An mou tilefonouses
TTITLE15=Adonis
TTITLE16=To granazi
TTITLE17=Den eisai edo
TTITLE18=Ta laika
TTITLE19=Oh, Carol
TTITLE20=Rita Ritaki
TTITLE21=She loves you 
TTITLE22=To sholeio
TTITLE23=S'opoion aresoume
TTITLE24=Post love
TTITLE25=To heirokrotima
EXTD=
EXTT0=
EXTT1=
EXTT2=
EXTT3=
EXTT4=
EXTT5=
EXTT6=
EXTT7=
EXTT8=
EXTT9=
EXTT10=
EXTT11=
EXTT12=
EXTT13=
EXTT14=
EXTT15=
EXTT16=
EXTT17=
EXTT18=
EXTT19=
EXTT20=
EXTT21=
EXTT22=
EXTT23=
EXTT24=
EXTT25=
PLAYORDER=
